<svg width="123" height="50" viewBox="0 0 123 50" fill="none" xmlns="http://www.w3.org/2000/svg">
<path d="M11.2448 41V36.584C16.7168 31.208 25.2128 23.432 25.2128 16.904C25.2128 14.216 23.7248 12.536 20.9408 12.536C18.5408 12.536 16.8128 14.216 16.0928 17.048L11.4848 14.984C12.3968 10.088 16.2368 7.016 21.5648 7.016C27.9488 7.016 31.0688 11.336 31.0688 15.8C31.0688 25.208 21.0368 33.704 18.3968 35.864H32.3648V41H11.2448ZM36.6566 24.2C36.6566 13.928 40.2086 7.016 47.9366 7.016C55.6166 7.016 59.1686 13.928 59.1686 24.2C59.1686 34.472 55.7126 41.384 48.0326 41.384C40.3046 41.384 36.6566 34.472 36.6566 24.2ZM42.5606 24.2C42.5606 32.408 44.4326 36.248 48.0326 36.248C51.8726 36.248 53.3126 32.504 53.3126 24.2C53.3126 15.896 51.7766 12.2 47.9366 12.2C44.1446 12.2 42.5606 16.088 42.5606 24.2ZM62.9948 41V36.584C68.4668 31.208 76.9628 23.432 76.9628 16.904C76.9628 14.216 75.4748 12.536 72.6908 12.536C70.2908 12.536 68.5628 14.216 67.8428 17.048L63.2348 14.984C64.1468 10.088 67.9868 7.016 73.3148 7.016C79.6988 7.016 82.8188 11.336 82.8188 15.8C82.8188 25.208 72.7868 33.704 70.1468 35.864H84.1148V41H62.9948ZM102.471 41V33.224H87.1106V29.144L100.071 7.4H106.407L94.2626 27.704H102.471V19.4H107.991V27.704H112.311V33.224H107.991V41H102.471Z" fill="#83D8BA"/>
<rect x="0.5" y="0.5" width="122" height="49" rx="4.5" stroke="#83D8BA" stroke-dasharray="5 5"/>
</svg>
