<svg width="34" height="27" viewBox="0 0 34 27" fill="none" xmlns="http://www.w3.org/2000/svg">
<path d="M30.9814 2.32748C32.9455 4.48717 34 6.90941 34 10.8359C34 17.7453 29.3167 23.9381 22.5014 27L20.7985 24.2797C27.158 20.7184 28.4013 16.097 28.899 13.1832C27.875 13.732 26.5345 13.9234 25.2187 13.7971C21.7787 13.4674 19.0671 10.5438 19.0671 6.90941C19.0671 5.07692 19.7702 3.31949 21.0219 2.02372C22.2735 0.727954 23.9711 0 25.7412 0C27.7873 0 29.7457 0.967317 30.9814 2.32748ZM11.9124 2.32748C13.8765 4.48717 14.931 6.90941 14.931 10.8359C14.931 17.7453 10.2477 23.9381 3.43242 27L1.72956 24.2797C8.08906 20.7184 9.33236 16.097 9.82816 13.1832C8.80415 13.732 7.4636 13.9234 6.14975 13.7971C2.7097 13.4694 0 10.5457 0 6.90941C0 5.07692 0.703166 3.31949 1.95481 2.02372C3.20646 0.727954 4.90405 0 6.67414 0C8.72025 0 10.6786 0.967317 11.9143 2.32748" fill="white"/>
</svg>
