<svg width="17" height="17" viewBox="0 0 17 17" fill="none" xmlns="http://www.w3.org/2000/svg">
<path d="M7.54882 0.931517C7.84792 0.00968838 9.15208 0.00968719 9.45118 0.931516L10.7544 4.94795C10.8881 5.36017 11.2722 5.63932 11.7056 5.63932H15.9258C16.8942 5.63932 17.2972 6.87823 16.5141 7.44795L13.0975 9.93372C12.7475 10.1884 12.601 10.6393 12.7346 11.051L14.0391 15.0713C14.3381 15.9929 13.283 16.7586 12.4996 16.1886L9.08832 13.7067C8.73761 13.4515 8.26239 13.4515 7.91168 13.7067L4.50042 16.1886C3.71697 16.7586 2.6619 15.9929 2.96091 15.0713L4.26538 11.051C4.39896 10.6393 4.25251 10.1884 3.90252 9.93372L0.485901 7.44795C-0.297163 6.87823 0.105835 5.63932 1.07422 5.63932H5.29443C5.72781 5.63932 6.11186 5.36017 6.24561 4.94795L7.54882 0.931517Z" fill="#83D8BA"/>
</svg>
